<svg width="17" height="14" viewBox="0 0 17 14" fill="none" xmlns="http://www.w3.org/2000/svg">
<path d="M10.9792 2.73171C11.7583 2.73171 12.3958 2.11707 12.3958 1.36585C12.3958 0.614634 11.7583 0 10.9792 0C10.2 0 9.5625 0.614634 9.5625 1.36585C9.5625 2.11707 10.2 2.73171 10.9792 2.73171ZM3.54167 7.17073C1.55833 7.17073 0 8.67317 0 10.5854C0 12.4976 1.55833 14 3.54167 14C5.525 14 7.08333 12.4976 7.08333 10.5854C7.08333 8.67317 5.525 7.17073 3.54167 7.17073ZM3.54167 12.9756C2.19583 12.9756 1.0625 11.8829 1.0625 10.5854C1.0625 9.2878 2.19583 8.19512 3.54167 8.19512C4.8875 8.19512 6.02083 9.2878 6.02083 10.5854C6.02083 11.8829 4.8875 12.9756 3.54167 12.9756ZM7.65 6.14634L9.35 4.50732L9.91667 5.05366C10.8375 5.94146 12.0417 6.4878 13.5292 6.4878V5.12195C12.4667 5.12195 11.6167 4.71219 10.9792 4.09756L9.63333 2.8C9.27917 2.52683 8.925 2.39024 8.5 2.39024C8.075 2.39024 7.72083 2.52683 7.50833 2.8L5.525 4.71219C5.24167 4.98537 5.1 5.32683 5.1 5.66829C5.1 6.07805 5.24167 6.41951 5.525 6.62439L7.79167 8.53659V11.9512H9.20833V7.71707L7.65 6.14634ZM13.4583 7.17073C11.475 7.17073 9.91667 8.67317 9.91667 10.5854C9.91667 12.4976 11.475 14 13.4583 14C15.4417 14 17 12.4976 17 10.5854C17 8.67317 15.4417 7.17073 13.4583 7.17073ZM13.4583 12.9756C12.1125 12.9756 10.9792 11.8829 10.9792 10.5854C10.9792 9.2878 12.1125 8.19512 13.4583 8.19512C14.8042 8.19512 15.9375 9.2878 15.9375 10.5854C15.9375 11.8829 14.8042 12.9756 13.4583 12.9756Z" fill="#C0F8D7"/>
</svg>
