<svg width="45" height="45" viewBox="0 0 45 45" fill="none" xmlns="http://www.w3.org/2000/svg">
<path fill-rule="evenodd" clip-rule="evenodd" d="M45 22.5C45 34.9259 34.9272 44.9992 22.5014 45C34.9208 44.9992 45 34.9195 45 22.5ZM22.5 45C10.0736 45 0 34.9264 0 22.5C0 34.92 10.08 45 22.5 45ZM0 22.5C0 10.0736 10.0736 0 22.5 0C10.08 0 0 10.08 0 22.5ZM22.5 0C34.9259 0 44.9992 10.0728 45 22.4986C44.9992 10.0792 34.9195 0 22.5 0ZM29.25 13.5C29.25 9.765 26.235 6.75 22.5 6.75C18.765 6.75 15.75 9.765 15.75 13.5C15.75 17.235 18.765 20.25 22.5 20.25C26.235 20.25 29.25 17.235 29.25 13.5ZM9 31.455C11.9025 35.82 16.875 38.7 22.5 38.7C28.125 38.7 33.0975 35.82 36 31.455C35.9325 26.9775 26.9775 24.525 22.5 24.525C18 24.525 9.0675 26.9775 9 31.455Z" fill="white"/>
</svg>
