<svg width="13" height="13" viewBox="0 0 13 13" fill="none" xmlns="http://www.w3.org/2000/svg">
<path d="M6.5 0C2.912 0 0 2.912 0 6.5C0 10.088 2.912 13 6.5 13C10.088 13 13 10.088 13 6.5C13 2.912 10.088 0 6.5 0ZM8.8465 4.121C9.542 4.121 10.101 4.68 10.101 5.3755C10.101 6.071 9.542 6.63 8.8465 6.63C8.151 6.63 7.592 6.071 7.592 5.3755C7.5855 4.68 8.151 4.121 8.8465 4.121ZM4.9465 3.094C5.7915 3.094 6.4805 3.783 6.4805 4.628C6.4805 5.473 5.7915 6.162 4.9465 6.162C4.1015 6.162 3.4125 5.473 3.4125 4.628C3.4125 3.7765 4.095 3.094 4.9465 3.094ZM4.9465 9.0285V11.466C3.3865 10.9785 2.1515 9.776 1.6055 8.242C2.288 7.514 3.991 7.1435 4.9465 7.1435C5.291 7.1435 5.7265 7.1955 6.1815 7.2865C5.1155 7.852 4.9465 8.5995 4.9465 9.0285ZM6.5 11.7C6.3245 11.7 6.1555 11.6935 5.9865 11.674V9.0285C5.9865 8.1055 7.8975 7.644 8.8465 7.644C9.542 7.644 10.7445 7.8975 11.3425 8.3915C10.582 10.322 8.7035 11.7 6.5 11.7Z" fill="#C0F8D7"/>
</svg>
