<svg width="20" height="20" viewBox="0 0 20 20" fill="none" xmlns="http://www.w3.org/2000/svg">
<path d="M14.9606 1.25984V0H19.3701C19.718 0 20 0.282008 20 0.629921V5.03937H18.7402V2.14803L12.8882 8L12 7.11181L17.852 1.25984H14.9606Z" fill="#333333"/>
<path d="M0.629921 0H5.03937V1.25984H2.14803L8 7.11181L7.11181 8L1.25984 2.14803V5.03937H4.76837e-07V0.629921C4.76837e-07 0.282008 0.282008 0 0.629921 0Z" fill="#333333"/>
<path d="M1.25984 17.852L7.11181 12L8 12.8882L2.14803 18.7402H5.03937V20H0.629921C0.282008 20 4.76837e-07 19.718 4.76837e-07 19.3701V14.9606H1.25984V17.852Z" fill="#333333"/>
<path d="M12.8882 12L18.7402 17.8537V14.9646H20V19.3706C20 19.7182 19.718 20 19.3701 20H14.9606V18.7411H17.852L12 12.8938L12.8882 12Z" fill="#333333"/>
</svg>
