<svg width="130" height="15" viewBox="0 0 130 15" fill="none" xmlns="http://www.w3.org/2000/svg">
<path d="M2.06424 0.799973H0.336243V12H2.06424V6.62397L6.38424 12H8.65624L3.56824 5.87197L8.62424 0.799973H6.38424L2.06424 5.26397V0.799973Z" fill="white"/>
<path d="M11.7019 0.799973V12H13.4299V7.45597H14.1819C14.9979 7.45597 16.0379 7.32797 16.9179 6.57597C17.4779 6.09597 18.0059 5.29597 18.0059 4.12797C18.0059 3.29597 17.7339 2.14397 16.6139 1.40797C15.7659 0.847973 14.9019 0.799973 14.1659 0.799973H11.7019ZM13.4299 2.39997H14.1659C14.7579 2.39997 16.2779 2.47997 16.2779 4.11197C16.2779 5.67997 14.9339 5.85597 14.1819 5.85597H13.4299V2.39997Z" fill="white"/>
<path d="M20.0866 0.799973L24.1186 8.65597L22.6146 12H24.4066L29.4626 0.799973H27.6706L25.0946 6.60797L22.1666 0.799973H20.0866Z" fill="white"/>
<path d="M38.1611 2.39997V0.799973H31.3131V2.39997H33.8731V12H35.6011V2.39997H38.1611Z" fill="white"/>
<path d="M48.757 12H50.485V0.319973L42.933 8.35197V0.799973H41.205V12.48L48.757 4.44797V12Z" fill="white"/>
<path d="M59.9831 0.799973V12H61.7111V2.39997H66.4791V12H68.2071V0.799973H59.9831Z" fill="white"/>
<path d="M78.5404 0.799973H72.3644V12H78.5404V10.4H74.0924V6.68797H78.4124V5.08797H74.0924V2.39997H78.5404V0.799973Z" fill="white"/>
<path d="M83.3656 0.799973V5.93597C83.3656 7.32797 83.2376 8.17597 82.9656 8.87997C82.6136 9.75997 81.9896 10.384 81.1896 10.4V14.528H82.7896V12H90.0216V14.528H91.6216V10.4H90.3736V0.799973H83.3656ZM85.0936 2.39997H88.6456V10.4H83.8136C84.2136 10.048 84.4856 9.63197 84.6936 9.07197C84.8696 8.59197 85.0936 7.69597 85.0936 5.95197V2.39997Z" fill="white"/>
<path d="M102.529 12H104.385L99.0726 0.159973L93.5046 12H95.3606L96.5926 9.27997H101.345L102.529 12ZM97.2806 7.67997L99.0086 3.90397L100.673 7.67997H97.2806Z" fill="white"/>
<path d="M108.472 0.799973V7.47197C108.472 8.35197 108.456 9.61597 107.912 10.128C107.688 10.336 107.224 10.496 106.84 10.496C106.632 10.496 106.408 10.432 106.28 10.4V12C106.52 12.064 106.792 12.096 107.096 12.096C108.024 12.096 108.664 11.76 109.064 11.424C110.12 10.544 110.2 9.27997 110.2 7.98397V2.39997H113.896V12H115.624V0.799973H108.472Z" fill="white"/>
<path d="M127.332 12H129.06V0.319973L121.508 8.35197V0.799973H119.78V12.48L127.332 4.44797V12Z" fill="white"/>
</svg>
