<svg width="34" height="46" viewBox="0 0 34 46" fill="none" xmlns="http://www.w3.org/2000/svg">
<path fill-rule="evenodd" clip-rule="evenodd" d="M0 16.6594C0 7.47339 7.62615 0 17 0C26.3738 0 33.9998 7.47339 34 16.6594C34 28.0595 18.7867 44.7955 18.1389 45.5024C17.5317 46.1653 16.4694 46.1664 15.8611 45.5024C15.2133 44.7955 0 28.0595 0 16.6594Z" fill="#BDBDBD"/>
<path d="M21.5 17.4819C21.5 19.7179 21.1331 21.3632 20.3994 22.4179C19.6657 23.4726 18.5296 24 16.9911 24C15.4527 24 14.3195 23.4757 13.5917 22.427C12.8639 21.3783 12.5 19.736 12.5 17.5C12.5 15.264 12.8639 13.6217 13.5917 12.573C14.3195 11.5243 15.4527 11 16.9911 11C18.5414 11 19.6805 11.5213 20.4083 12.564C21.1361 13.6066 21.5 15.2459 21.5 17.4819ZM19.7692 17.4819C19.7692 15.7401 19.5444 14.4655 19.0947 13.6579C18.6509 12.8503 17.9497 12.4465 16.9911 12.4465C16.0444 12.4465 15.3462 12.8533 14.8964 13.6669C14.4467 14.4805 14.2219 15.7582 14.2219 17.5C14.2219 19.2418 14.4467 20.5195 14.8964 21.3331C15.3462 22.1467 16.0444 22.5535 16.9911 22.5535C17.9497 22.5535 18.6509 22.1467 19.0947 21.3331C19.5444 20.5195 19.7692 19.2357 19.7692 17.4819Z" fill="white"/>
</svg>
