<svg width="34" height="46" viewBox="0 0 34 46" fill="none" xmlns="http://www.w3.org/2000/svg">
<path fill-rule="evenodd" clip-rule="evenodd" d="M0 16.6594C0 7.47339 7.62615 0 17 0C26.3738 0 33.9998 7.47339 34 16.6594C34 28.0595 18.7867 44.7955 18.1389 45.5024C17.5317 46.1653 16.4694 46.1664 15.8611 45.5024C15.2133 44.7955 0 28.0595 0 16.6594Z" fill="#00C352"/>
<path d="M16.9443 23V14.3076H14V13.1738C14.7969 13.127 15.3975 13.0332 15.8018 12.8926C16.2119 12.752 16.5312 12.5381 16.7598 12.251C16.9883 11.9639 17.1904 11.4922 17.3662 10.8359H18.5352V23H16.9443Z" fill="white"/>
</svg>
