<svg width="34" height="46" viewBox="0 0 34 46" fill="none" xmlns="http://www.w3.org/2000/svg">
<path fill-rule="evenodd" clip-rule="evenodd" d="M0 16.6594C0 7.47339 7.62615 0 17 0C26.3738 0 33.9998 7.47339 34 16.6594C34 28.0595 18.7867 44.7955 18.1389 45.5024C17.5317 46.1653 16.4694 46.1664 15.8611 45.5024C15.2133 44.7955 0 28.0595 0 16.6594Z" fill="#00C352"/>
<path d="M10.9443 23V14.3076H8V13.1738C8.79688 13.127 9.39746 13.0332 9.80176 12.8926C10.2119 12.752 10.5312 12.5381 10.7598 12.251C10.9883 11.9639 11.1904 11.4922 11.3662 10.8359H12.5352V23H10.9443Z" fill="white"/>
<path d="M26.6504 16.9355C26.6504 19.1094 26.2871 20.709 25.5605 21.7344C24.834 22.7598 23.709 23.2725 22.1855 23.2725C20.6621 23.2725 19.54 22.7627 18.8193 21.7432C18.0986 20.7236 17.7383 19.127 17.7383 16.9531C17.7383 14.7793 18.0986 13.1826 18.8193 12.1631C19.54 11.1436 20.6621 10.6338 22.1855 10.6338C23.7207 10.6338 24.8486 11.1406 25.5693 12.1543C26.29 13.168 26.6504 14.7617 26.6504 16.9355ZM24.9365 16.9355C24.9365 15.2422 24.7139 14.0029 24.2686 13.2178C23.8291 12.4326 23.1348 12.04 22.1855 12.04C21.248 12.04 20.5566 12.4355 20.1113 13.2266C19.666 14.0176 19.4434 15.2598 19.4434 16.9531C19.4434 18.6465 19.666 19.8887 20.1113 20.6797C20.5566 21.4707 21.248 21.8662 22.1855 21.8662C23.1348 21.8662 23.8291 21.4707 24.2686 20.6797C24.7139 19.8887 24.9365 18.6406 24.9365 16.9355Z" fill="white"/>
</svg>
