<svg width="34" height="46" viewBox="0 0 34 46" fill="none" xmlns="http://www.w3.org/2000/svg">
<path fill-rule="evenodd" clip-rule="evenodd" d="M0 16.6594C0 7.47339 7.62615 0 17 0C26.3738 0 33.9998 7.47339 34 16.6594C34 28.0595 18.7867 44.7955 18.1389 45.5024C17.5317 46.1653 16.4694 46.1664 15.8611 45.5024C15.2133 44.7955 0 28.0595 0 16.6594Z" fill="#00C352"/>
<path d="M11.9443 23V14.3076H9V13.1738C9.79688 13.127 10.3975 13.0332 10.8018 12.8926C11.2119 12.752 11.5312 12.5381 11.7598 12.251C11.9883 11.9639 12.1904 11.4922 12.3662 10.8359H13.5352V23H11.9443Z" fill="white"/>
<path d="M23.0537 23V14.3076H20.1094V13.1738C20.9062 13.127 21.5068 13.0332 21.9111 12.8926C22.3213 12.752 22.6406 12.5381 22.8691 12.251C23.0977 11.9639 23.2998 11.4922 23.4756 10.8359H24.6445V23H23.0537Z" fill="white"/>
</svg>
