<svg width="34" height="46" viewBox="0 0 34 46" fill="none" xmlns="http://www.w3.org/2000/svg">
<path fill-rule="evenodd" clip-rule="evenodd" d="M0 16.6594C0 7.47339 7.62615 0 17 0C26.3738 0 33.9998 7.47339 34 16.6594C34 28.0595 18.7867 44.7955 18.1389 45.5024C17.5317 46.1653 16.4694 46.1664 15.8611 45.5024C15.2133 44.7955 0 28.0595 0 16.6594Z" fill="#00C352"/>
<path d="M10.9443 23V14.3076H8V13.1738C8.79688 13.127 9.39746 13.0332 9.80176 12.8926C10.2119 12.752 10.5312 12.5381 10.7598 12.251C10.9883 11.9639 11.1904 11.4922 11.3662 10.8359H12.5352V23H10.9443Z" fill="white"/>
<path d="M17.8613 23V21.2861C19.2969 20.0674 20.3369 19.1533 20.9814 18.5439C21.626 17.9287 22.1592 17.3838 22.5811 16.9092C23.0029 16.4287 23.3281 15.9629 23.5566 15.5117C23.791 15.0547 23.9082 14.5566 23.9082 14.0176C23.9082 13.4141 23.709 12.9307 23.3105 12.5674C22.9121 12.2041 22.3818 12.0225 21.7197 12.0225C21.0928 12.0225 20.5801 12.1602 20.1816 12.4355C19.7891 12.7109 19.4551 13.0713 19.1797 13.5166L17.8262 12.6465C18.248 11.9199 18.79 11.3955 19.4521 11.0732C20.1143 10.7451 20.8936 10.5811 21.79 10.5811C22.9678 10.5811 23.8994 10.874 24.585 11.46C25.2764 12.04 25.6221 12.8633 25.6221 13.9297C25.6221 14.4688 25.5459 14.9756 25.3936 15.4502C25.2412 15.9189 25.001 16.3672 24.6729 16.7949C24.3506 17.2227 23.9141 17.7119 23.3633 18.2627C22.8184 18.8135 21.5967 19.9004 19.6982 21.5234H26.0176V23H17.8613Z" fill="white"/>
</svg>
