<svg width="34" height="46" viewBox="0 0 34 46" fill="none" xmlns="http://www.w3.org/2000/svg">
<path fill-rule="evenodd" clip-rule="evenodd" d="M0 16.6594C0 7.47339 7.62615 0 17 0C26.3738 0 33.9998 7.47339 34 16.6594C34 28.0595 18.7867 44.7955 18.1389 45.5024C17.5317 46.1653 16.4694 46.1664 15.8611 45.5024C15.2133 44.7955 0 28.0595 0 16.6594Z" fill="#00C352"/>
<path d="M10.9443 23V14.3076H8V13.1738C8.79688 13.127 9.39746 13.0332 9.80176 12.8926C10.2119 12.752 10.5312 12.5381 10.7598 12.251C10.9883 11.9639 11.1904 11.4922 11.3662 10.8359H12.5352V23H10.9443Z" fill="white"/>
<path d="M25.6396 19.5283C25.6396 20.7764 25.2617 21.7109 24.5059 22.332C23.75 22.9473 22.6807 23.2549 21.2979 23.2549C20.4717 23.2549 19.7158 23.0938 19.0303 22.7715C18.3506 22.4434 17.8525 22.0098 17.5361 21.4707L18.8896 20.6094C19.1064 20.9434 19.4199 21.2305 19.8301 21.4707C20.2461 21.7109 20.7295 21.8311 21.2803 21.8311C22.1943 21.8311 22.8623 21.6377 23.2842 21.251C23.7119 20.8584 23.9258 20.2461 23.9258 19.4141C23.9258 17.9668 22.9971 17.2432 21.1396 17.2432H20.2432V15.8369H20.999C21.8369 15.8369 22.499 15.6582 22.9854 15.3008C23.4717 14.9375 23.7148 14.4248 23.7148 13.7627C23.7148 13.165 23.5156 12.7227 23.1172 12.4355C22.7246 12.1484 22.2031 12.0049 21.5527 12.0049C20.4395 12.0049 19.5928 12.4531 19.0127 13.3496L17.6504 12.4883C18.0137 11.8496 18.5381 11.3721 19.2236 11.0557C19.9092 10.7393 20.7207 10.5811 21.6582 10.5811C22.4434 10.5811 23.1201 10.7012 23.6885 10.9414C24.2568 11.1816 24.6875 11.5244 24.9805 11.9697C25.2734 12.4092 25.4199 12.9248 25.4199 13.5166C25.4199 14.3311 25.2178 14.9727 24.8135 15.4414C24.415 15.9102 23.8027 16.2471 22.9766 16.4521C23.7441 16.5107 24.3799 16.7979 24.8838 17.3135C25.3877 17.8291 25.6396 18.5674 25.6396 19.5283Z" fill="white"/>
</svg>
