<svg width="34" height="46" viewBox="0 0 34 46" fill="none" xmlns="http://www.w3.org/2000/svg">
<path fill-rule="evenodd" clip-rule="evenodd" d="M0 16.6594C0 7.47339 7.62615 0 17 0C26.3738 0 33.9998 7.47339 34 16.6594C34 28.0595 18.7867 44.7955 18.1389 45.5024C17.5317 46.1653 16.4694 46.1664 15.8611 45.5024C15.2133 44.7955 0 28.0595 0 16.6594Z" fill="#00C352"/>
<path d="M10.9443 23V14.3076H8V13.1738C8.79688 13.127 9.39746 13.0332 9.80176 12.8926C10.2119 12.752 10.5312 12.5381 10.7598 12.251C10.9883 11.9639 11.1904 11.4922 11.3662 10.8359H12.5352V23H10.9443Z" fill="white"/>
<path d="M25.042 20.3018V23H23.4775V20.3018H17.2197V18.7373L23.5479 10.8359H25.042V18.8955H26.7207V20.3018H25.042ZM23.4775 13.1562L18.8193 18.8955H23.4775V13.1562Z" fill="white"/>
</svg>
