<svg width="34" height="46" viewBox="0 0 34 46" fill="none" xmlns="http://www.w3.org/2000/svg">
<path fill-rule="evenodd" clip-rule="evenodd" d="M0 16.6594C0 7.47339 7.62615 0 17 0C26.3738 0 33.9998 7.47339 34 16.6594C34 28.0595 18.7867 44.7955 18.1389 45.5024C17.5317 46.1653 16.4694 46.1664 15.8611 45.5024C15.2133 44.7955 0 28.0595 0 16.6594Z" fill="#00C352"/>
<path d="M10.9443 23V14.3076H8V13.1738C8.79688 13.127 9.39746 13.0332 9.80176 12.8926C10.2119 12.752 10.5312 12.5381 10.7598 12.251C10.9883 11.9639 11.1904 11.4922 11.3662 10.8359H12.5352V23H10.9443Z" fill="white"/>
<path d="M25.8154 19.1152C25.8154 20.3867 25.4463 21.3945 24.708 22.1387C23.9756 22.8828 22.8828 23.2549 21.4297 23.2549C20.4922 23.2549 19.6982 23.082 19.0479 22.7363C18.4033 22.3848 17.9316 21.9629 17.6328 21.4707L18.9775 20.5918C19.1826 20.9141 19.4873 21.2012 19.8916 21.4531C20.3018 21.7051 20.8027 21.8311 21.3945 21.8311C22.3027 21.8311 22.9854 21.5879 23.4424 21.1016C23.8994 20.6152 24.1279 19.9531 24.1279 19.1152C24.1279 18.3828 23.8936 17.8027 23.4248 17.375C22.9561 16.9473 22.2852 16.7334 21.4121 16.7334C20.5391 16.7334 19.7832 16.9443 19.1445 17.3662H18.3535L19.0127 10.8359H25.3848V12.3037H20.3486L19.9707 15.7842C20.2227 15.6494 20.5215 15.5469 20.8672 15.4766C21.2188 15.4062 21.5615 15.3711 21.8955 15.3711C23.1436 15.3711 24.1074 15.6875 24.7871 16.3203C25.4727 16.9531 25.8154 17.8848 25.8154 19.1152Z" fill="white"/>
</svg>
