<svg width="34" height="46" viewBox="0 0 34 46" fill="none" xmlns="http://www.w3.org/2000/svg">
<path fill-rule="evenodd" clip-rule="evenodd" d="M0 16.6594C0 7.47339 7.62615 0 17 0C26.3738 0 33.9998 7.47339 34 16.6594C34 28.0595 18.7867 44.7955 18.1389 45.5024C17.5317 46.1653 16.4694 46.1664 15.8611 45.5024C15.2133 44.7955 0 28.0595 0 16.6594Z" fill="#00C352"/>
<path d="M10.9443 23V14.3076H8V13.1738C8.79688 13.127 9.39746 13.0332 9.80176 12.8926C10.2119 12.752 10.5312 12.5381 10.7598 12.251C10.9883 11.9639 11.1904 11.4922 11.3662 10.8359H12.5352V23H10.9443Z" fill="white"/>
<path d="M21.9658 23.2549C20.4951 23.2549 19.4199 22.7393 18.7402 21.708C18.0605 20.6709 17.7207 19.1504 17.7207 17.1465C17.7207 15.0605 18.1426 13.4463 18.9863 12.3037C19.8301 11.1553 20.999 10.5811 22.4932 10.5811C23.1846 10.5811 23.7822 10.6807 24.2861 10.8799C24.79 11.0732 25.2529 11.3633 25.6748 11.75L24.6641 13.0068C24.3184 12.6729 23.9814 12.4209 23.6533 12.251C23.3311 12.0752 22.9443 11.9873 22.4932 11.9873C20.7119 11.9873 19.71 13.373 19.4873 16.1445C19.8213 15.9043 20.2432 15.6875 20.7529 15.4941C21.2627 15.3008 21.8164 15.2041 22.4141 15.2041C23.5332 15.2041 24.4268 15.5205 25.0947 16.1533C25.7686 16.7803 26.1055 17.7471 26.1055 19.0537C26.1055 20.4131 25.7393 21.4531 25.0068 22.1738C24.2744 22.8945 23.2607 23.2549 21.9658 23.2549ZM22.0361 21.8486C22.8447 21.8486 23.4512 21.6143 23.8555 21.1455C24.2656 20.6768 24.4707 20 24.4707 19.1152C24.4707 17.457 23.6475 16.6279 22.001 16.6279C21.5439 16.6279 21.084 16.71 20.6211 16.874C20.1641 17.0322 19.7803 17.208 19.4697 17.4014C19.4697 18.96 19.6777 20.0908 20.0938 20.7939C20.5156 21.4971 21.1631 21.8486 22.0361 21.8486Z" fill="white"/>
</svg>
