<svg width="34" height="46" viewBox="0 0 34 46" fill="none" xmlns="http://www.w3.org/2000/svg">
<path fill-rule="evenodd" clip-rule="evenodd" d="M0 16.6594C0 7.47339 7.62615 0 17 0C26.3738 0 33.9998 7.47339 34 16.6594C34 28.0595 18.7867 44.7955 18.1389 45.5024C17.5317 46.1653 16.4694 46.1664 15.8611 45.5024C15.2133 44.7955 0 28.0595 0 16.6594Z" fill="#00C352"/>
<path d="M10.9443 23V14.3076H8V13.1738C8.79688 13.127 9.39746 13.0332 9.80176 12.8926C10.2119 12.752 10.5312 12.5381 10.7598 12.251C10.9883 11.9639 11.1904 11.4922 11.3662 10.8359H12.5352V23H10.9443Z" fill="white"/>
<path d="M26.123 19.8711C26.123 21.0078 25.7393 21.8574 24.9717 22.4199C24.2041 22.9766 23.1729 23.2549 21.8779 23.2549C20.4717 23.2549 19.4082 22.9678 18.6875 22.3936C17.9727 21.8135 17.6152 20.9727 17.6152 19.8711C17.6152 18.3066 18.4912 17.1963 20.2432 16.54C19.5635 16.2061 19.0859 15.9189 18.8105 15.6787C18.5352 15.4326 18.3125 15.1484 18.1426 14.8262C17.9785 14.5039 17.8965 14.126 17.8965 13.6924C17.8965 12.708 18.2334 11.9434 18.9072 11.3984C19.5811 10.8535 20.5713 10.5811 21.8779 10.5811C23.1611 10.5811 24.1426 10.8447 24.8223 11.3721C25.502 11.8994 25.8418 12.667 25.8418 13.6748C25.8418 14.0967 25.7539 14.4775 25.5781 14.8174C25.4023 15.1514 25.168 15.4473 24.875 15.7051C24.582 15.9629 24.1162 16.2412 23.4775 16.54C24.4033 16.9443 25.0742 17.4102 25.4902 17.9375C25.9121 18.4648 26.123 19.1094 26.123 19.8711ZM24.2158 13.71C24.2158 13.1592 24.0195 12.7168 23.627 12.3828C23.2402 12.043 22.6572 11.873 21.8779 11.873C21.0518 11.873 20.4512 12.043 20.0762 12.3828C19.707 12.7168 19.5225 13.1416 19.5225 13.6572C19.5225 13.9736 19.5957 14.2402 19.7422 14.457C19.8887 14.668 20.1201 14.8818 20.4365 15.0986C20.7588 15.3154 21.2393 15.5732 21.8779 15.8721C22.6104 15.5732 23.1816 15.2568 23.5918 14.9229C24.0078 14.583 24.2158 14.1787 24.2158 13.71ZM24.5059 19.8711C24.5059 19.5078 24.4238 19.1826 24.2598 18.8955C24.0957 18.6084 23.8467 18.3418 23.5127 18.0957C23.1846 17.8496 22.6396 17.5537 21.8779 17.208C21.1279 17.5186 20.5918 17.7939 20.2695 18.0342C19.9473 18.2744 19.6924 18.5469 19.5049 18.8516C19.3232 19.1562 19.2324 19.502 19.2324 19.8887C19.2324 20.5098 19.4463 21.0078 19.874 21.3828C20.3076 21.752 20.9756 21.9365 21.8779 21.9365C22.792 21.9365 23.457 21.7461 23.873 21.3652C24.2949 20.9785 24.5059 20.4805 24.5059 19.8711Z" fill="white"/>
</svg>
