<svg width="34" height="46" viewBox="0 0 34 46" fill="none" xmlns="http://www.w3.org/2000/svg">
<path fill-rule="evenodd" clip-rule="evenodd" d="M0 16.6594C0 7.47339 7.62615 0 17 0C26.3738 0 33.9998 7.47339 34 16.6594C34 28.0595 18.7867 44.7955 18.1389 45.5024C17.5317 46.1653 16.4694 46.1664 15.8611 45.5024C15.2133 44.7955 0 28.0595 0 16.6594Z" fill="#00C352"/>
<path d="M10.9443 23V14.3076H8V13.1738C8.79688 13.127 9.39746 13.0332 9.80176 12.8926C10.2119 12.752 10.5312 12.5381 10.7598 12.251C10.9883 11.9639 11.1904 11.4922 11.3662 10.8359H12.5352V23H10.9443Z" fill="white"/>
<path d="M18.8721 20.8203C19.2178 21.1602 19.5693 21.418 19.9268 21.5938C20.29 21.7637 20.7002 21.8486 21.1572 21.8486C22.083 21.8486 22.7979 21.5176 23.3018 20.8555C23.8057 20.1875 24.1162 19.1328 24.2334 17.6914C23.8877 17.9316 23.46 18.1484 22.9502 18.3418C22.4404 18.5293 21.8955 18.623 21.3154 18.623C20.1904 18.623 19.291 18.3125 18.6172 17.6914C17.9492 17.0645 17.6152 16.0918 17.6152 14.7734C17.6152 13.4316 17.9785 12.3975 18.7051 11.6709C19.4375 10.9443 20.4424 10.5811 21.7197 10.5811C23.2432 10.5811 24.3359 11.0879 24.998 12.1016C25.666 13.1152 26 14.583 26 16.5049C26 17.9521 25.8213 19.1738 25.4639 20.1699C25.1064 21.1602 24.5674 21.9219 23.8467 22.4551C23.126 22.9883 22.2295 23.2549 21.1572 23.2549C19.8213 23.2549 18.7285 22.8594 17.8789 22.0684L18.8721 20.8203ZM21.7197 17.208C22.1709 17.208 22.6279 17.126 23.0908 16.9619C23.5537 16.7979 23.9404 16.6191 24.251 16.4258C24.251 15.3184 24.166 14.4746 23.9961 13.8945C23.832 13.3145 23.5684 12.8516 23.2051 12.5059C22.8477 12.1602 22.3525 11.9873 21.7197 11.9873C20.9111 11.9873 20.293 12.2246 19.8652 12.6992C19.4434 13.168 19.2324 13.8418 19.2324 14.7207C19.2324 16.3789 20.0615 17.208 21.7197 17.208Z" fill="white"/>
</svg>
