<svg width="34" height="46" viewBox="0 0 34 46" fill="none" xmlns="http://www.w3.org/2000/svg">
<path fill-rule="evenodd" clip-rule="evenodd" d="M0 16.6594C0 7.47339 7.62615 0 17 0C26.3738 0 33.9998 7.47339 34 16.6594C34 28.0595 18.7867 44.7955 18.1389 45.5024C17.5317 46.1653 16.4694 46.1664 15.8611 45.5024C15.2133 44.7955 0 28.0595 0 16.6594Z" fill="#00C352"/>
<path d="M13.0352 23V21.2861C14.4707 20.0674 15.5107 19.1533 16.1553 18.5439C16.7998 17.9287 17.333 17.3838 17.7549 16.9092C18.1768 16.4287 18.502 15.9629 18.7305 15.5117C18.9648 15.0547 19.082 14.5566 19.082 14.0176C19.082 13.4141 18.8828 12.9307 18.4844 12.5674C18.0859 12.2041 17.5557 12.0225 16.8936 12.0225C16.2666 12.0225 15.7539 12.1602 15.3555 12.4355C14.9629 12.7109 14.6289 13.0713 14.3535 13.5166L13 12.6465C13.4219 11.9199 13.9639 11.3955 14.626 11.0732C15.2881 10.7451 16.0674 10.5811 16.9639 10.5811C18.1416 10.5811 19.0732 10.874 19.7588 11.46C20.4502 12.04 20.7959 12.8633 20.7959 13.9297C20.7959 14.4688 20.7197 14.9756 20.5674 15.4502C20.415 15.9189 20.1748 16.3672 19.8467 16.7949C19.5244 17.2227 19.0879 17.7119 18.5371 18.2627C17.9922 18.8135 16.7705 19.9004 14.8721 21.5234H21.1914V23H13.0352Z" fill="white"/>
</svg>
