<svg width="34" height="46" viewBox="0 0 34 46" fill="none" xmlns="http://www.w3.org/2000/svg">
<path fill-rule="evenodd" clip-rule="evenodd" d="M0 16.6594C0 7.47339 7.62615 0 17 0C26.3738 0 33.9998 7.47339 34 16.6594C34 28.0595 18.7867 44.7955 18.1389 45.5024C17.5317 46.1653 16.4694 46.1664 15.8611 45.5024C15.2133 44.7955 0 28.0595 0 16.6594Z" fill="#00C352"/>
<path d="M7.03516 23V21.2861C8.4707 20.0674 9.51074 19.1533 10.1553 18.5439C10.7998 17.9287 11.333 17.3838 11.7549 16.9092C12.1768 16.4287 12.502 15.9629 12.7305 15.5117C12.9648 15.0547 13.082 14.5566 13.082 14.0176C13.082 13.4141 12.8828 12.9307 12.4844 12.5674C12.0859 12.2041 11.5557 12.0225 10.8936 12.0225C10.2666 12.0225 9.75391 12.1602 9.35547 12.4355C8.96289 12.7109 8.62891 13.0713 8.35352 13.5166L7 12.6465C7.42188 11.9199 7.96387 11.3955 8.62598 11.0732C9.28809 10.7451 10.0674 10.5811 10.9639 10.5811C12.1416 10.5811 13.0732 10.874 13.7588 11.46C14.4502 12.04 14.7959 12.8633 14.7959 13.9297C14.7959 14.4688 14.7197 14.9756 14.5674 15.4502C14.415 15.9189 14.1748 16.3672 13.8467 16.7949C13.5244 17.2227 13.0879 17.7119 12.5371 18.2627C11.9922 18.8135 10.7705 19.9004 8.87207 21.5234H15.1914V23H7.03516Z" fill="white"/>
<path d="M26.2656 16.9355C26.2656 19.1094 25.9023 20.709 25.1758 21.7344C24.4492 22.7598 23.3242 23.2725 21.8008 23.2725C20.2773 23.2725 19.1553 22.7627 18.4346 21.7432C17.7139 20.7236 17.3535 19.127 17.3535 16.9531C17.3535 14.7793 17.7139 13.1826 18.4346 12.1631C19.1553 11.1436 20.2773 10.6338 21.8008 10.6338C23.3359 10.6338 24.4639 11.1406 25.1846 12.1543C25.9053 13.168 26.2656 14.7617 26.2656 16.9355ZM24.5518 16.9355C24.5518 15.2422 24.3291 14.0029 23.8838 13.2178C23.4443 12.4326 22.75 12.04 21.8008 12.04C20.8633 12.04 20.1719 12.4355 19.7266 13.2266C19.2812 14.0176 19.0586 15.2598 19.0586 16.9531C19.0586 18.6465 19.2812 19.8887 19.7266 20.6797C20.1719 21.4707 20.8633 21.8662 21.8008 21.8662C22.75 21.8662 23.4443 21.4707 23.8838 20.6797C24.3291 19.8887 24.5518 18.6406 24.5518 16.9355Z" fill="white"/>
</svg>
