<svg width="34" height="46" viewBox="0 0 34 46" fill="none" xmlns="http://www.w3.org/2000/svg">
<path fill-rule="evenodd" clip-rule="evenodd" d="M0 16.6594C0 7.47339 7.62615 0 17 0C26.3738 0 33.9998 7.47339 34 16.6594C34 28.0595 18.7867 44.7955 18.1389 45.5024C17.5317 46.1653 16.4694 46.1664 15.8611 45.5024C15.2133 44.7955 0 28.0595 0 16.6594Z" fill="#00C352"/>
<path d="M9.03516 23.4189V21.7051C10.4707 20.4863 11.5107 19.5723 12.1553 18.9629C12.7998 18.3477 13.333 17.8027 13.7549 17.3281C14.1768 16.8477 14.502 16.3818 14.7305 15.9307C14.9648 15.4736 15.082 14.9756 15.082 14.4365C15.082 13.833 14.8828 13.3496 14.4844 12.9863C14.0859 12.623 13.5557 12.4414 12.8936 12.4414C12.2666 12.4414 11.7539 12.5791 11.3555 12.8545C10.9629 13.1299 10.6289 13.4902 10.3535 13.9355L9 13.0654C9.42188 12.3389 9.96387 11.8145 10.626 11.4922C11.2881 11.1641 12.0674 11 12.9639 11C14.1416 11 15.0732 11.293 15.7588 11.8789C16.4502 12.459 16.7959 13.2822 16.7959 14.3486C16.7959 14.8877 16.7197 15.3945 16.5674 15.8691C16.415 16.3379 16.1748 16.7861 15.8467 17.2139C15.5244 17.6416 15.0879 18.1309 14.5371 18.6816C13.9922 19.2324 12.7705 20.3193 10.8721 21.9424H17.1914V23.4189H9.03516Z" fill="white"/>
<path d="M23.6689 23.4189V14.7266H20.7246V13.5928C21.5215 13.5459 22.1221 13.4521 22.5264 13.3115C22.9365 13.1709 23.2559 12.957 23.4844 12.6699C23.7129 12.3828 23.915 11.9111 24.0908 11.2549H25.2598V23.4189H23.6689Z" fill="white"/>
</svg>
