<svg width="34" height="46" viewBox="0 0 34 46" fill="none" xmlns="http://www.w3.org/2000/svg">
<path fill-rule="evenodd" clip-rule="evenodd" d="M0 16.6594C0 7.47339 7.62615 0 17 0C26.3738 0 33.9998 7.47339 34 16.6594C34 28.0595 18.7867 44.7955 18.1389 45.5024C17.5317 46.1653 16.4694 46.1664 15.8611 45.5024C15.2133 44.7955 0 28.0595 0 16.6594Z" fill="#00C352"/>
<path d="M8.03516 23.4189V21.7051C9.4707 20.4863 10.5107 19.5723 11.1553 18.9629C11.7998 18.3477 12.333 17.8027 12.7549 17.3281C13.1768 16.8477 13.502 16.3818 13.7305 15.9307C13.9648 15.4736 14.082 14.9756 14.082 14.4365C14.082 13.833 13.8828 13.3496 13.4844 12.9863C13.0859 12.623 12.5557 12.4414 11.8936 12.4414C11.2666 12.4414 10.7539 12.5791 10.3555 12.8545C9.96289 13.1299 9.62891 13.4902 9.35352 13.9355L8 13.0654C8.42188 12.3389 8.96387 11.8145 9.62598 11.4922C10.2881 11.1641 11.0674 11 11.9639 11C13.1416 11 14.0732 11.293 14.7588 11.8789C15.4502 12.459 15.7959 13.2822 15.7959 14.3486C15.7959 14.8877 15.7197 15.3945 15.5674 15.8691C15.415 16.3379 15.1748 16.7861 14.8467 17.2139C14.5244 17.6416 14.0879 18.1309 13.5371 18.6816C12.9922 19.2324 11.7705 20.3193 9.87207 21.9424H16.1914V23.4189H8.03516Z" fill="white"/>
<path d="M18.4766 23.4189V21.7051C19.9121 20.4863 20.9521 19.5723 21.5967 18.9629C22.2412 18.3477 22.7744 17.8027 23.1963 17.3281C23.6182 16.8477 23.9434 16.3818 24.1719 15.9307C24.4062 15.4736 24.5234 14.9756 24.5234 14.4365C24.5234 13.833 24.3242 13.3496 23.9258 12.9863C23.5273 12.623 22.9971 12.4414 22.335 12.4414C21.708 12.4414 21.1953 12.5791 20.7969 12.8545C20.4043 13.1299 20.0703 13.4902 19.7949 13.9355L18.4414 13.0654C18.8633 12.3389 19.4053 11.8145 20.0674 11.4922C20.7295 11.1641 21.5088 11 22.4053 11C23.583 11 24.5146 11.293 25.2002 11.8789C25.8916 12.459 26.2373 13.2822 26.2373 14.3486C26.2373 14.8877 26.1611 15.3945 26.0088 15.8691C25.8564 16.3379 25.6162 16.7861 25.2881 17.2139C24.9658 17.6416 24.5293 18.1309 23.9785 18.6816C23.4336 19.2324 22.2119 20.3193 20.3135 21.9424H26.6328V23.4189H18.4766Z" fill="white"/>
</svg>
