<svg width="34" height="46" viewBox="0 0 34 46" fill="none" xmlns="http://www.w3.org/2000/svg">
<path fill-rule="evenodd" clip-rule="evenodd" d="M0 16.6594C0 7.47339 7.62615 0 17 0C26.3738 0 33.9998 7.47339 34 16.6594C34 28.0595 18.7867 44.7955 18.1389 45.5024C17.5317 46.1653 16.4694 46.1664 15.8611 45.5024C15.2133 44.7955 0 28.0595 0 16.6594Z" fill="#00C352"/>
<path d="M8.03516 22.4189V20.7051C9.4707 19.4863 10.5107 18.5723 11.1553 17.9629C11.7998 17.3477 12.333 16.8027 12.7549 16.3281C13.1768 15.8477 13.502 15.3818 13.7305 14.9307C13.9648 14.4736 14.082 13.9756 14.082 13.4365C14.082 12.833 13.8828 12.3496 13.4844 11.9863C13.0859 11.623 12.5557 11.4414 11.8936 11.4414C11.2666 11.4414 10.7539 11.5791 10.3555 11.8545C9.96289 12.1299 9.62891 12.4902 9.35352 12.9355L8 12.0654C8.42188 11.3389 8.96387 10.8145 9.62598 10.4922C10.2881 10.1641 11.0674 10 11.9639 10C13.1416 10 14.0732 10.293 14.7588 10.8789C15.4502 11.459 15.7959 12.2822 15.7959 13.3486C15.7959 13.8877 15.7197 14.3945 15.5674 14.8691C15.415 15.3379 15.1748 15.7861 14.8467 16.2139C14.5244 16.6416 14.0879 17.1309 13.5371 17.6816C12.9922 18.2324 11.7705 19.3193 9.87207 20.9424H16.1914V22.4189H8.03516Z" fill="white"/>
<path d="M26.2549 18.9473C26.2549 20.1953 25.877 21.1299 25.1211 21.751C24.3652 22.3662 23.2959 22.6738 21.9131 22.6738C21.0869 22.6738 20.3311 22.5127 19.6455 22.1904C18.9658 21.8623 18.4678 21.4287 18.1514 20.8896L19.5049 20.0283C19.7217 20.3623 20.0352 20.6494 20.4453 20.8896C20.8613 21.1299 21.3447 21.25 21.8955 21.25C22.8096 21.25 23.4775 21.0566 23.8994 20.6699C24.3271 20.2773 24.541 19.665 24.541 18.833C24.541 17.3857 23.6123 16.6621 21.7549 16.6621H20.8584V15.2559H21.6143C22.4521 15.2559 23.1143 15.0771 23.6006 14.7197C24.0869 14.3564 24.3301 13.8438 24.3301 13.1816C24.3301 12.584 24.1309 12.1416 23.7324 11.8545C23.3398 11.5674 22.8184 11.4238 22.168 11.4238C21.0547 11.4238 20.208 11.8721 19.6279 12.7686L18.2656 11.9072C18.6289 11.2686 19.1533 10.791 19.8389 10.4746C20.5244 10.1582 21.3359 10 22.2734 10C23.0586 10 23.7354 10.1201 24.3037 10.3604C24.8721 10.6006 25.3027 10.9434 25.5957 11.3887C25.8887 11.8281 26.0352 12.3438 26.0352 12.9355C26.0352 13.75 25.833 14.3916 25.4287 14.8604C25.0303 15.3291 24.418 15.666 23.5918 15.8711C24.3594 15.9297 24.9951 16.2168 25.499 16.7324C26.0029 17.248 26.2549 17.9863 26.2549 18.9473Z" fill="white"/>
</svg>
