<svg width="34" height="46" viewBox="0 0 34 46" fill="none" xmlns="http://www.w3.org/2000/svg">
<path fill-rule="evenodd" clip-rule="evenodd" d="M0 16.6594C0 7.47339 7.62615 0 17 0C26.3738 0 33.9998 7.47339 34 16.6594C34 28.0595 18.7867 44.7955 18.1389 45.5024C17.5317 46.1653 16.4694 46.1664 15.8611 45.5024C15.2133 44.7955 0 28.0595 0 16.6594Z" fill="#00C352"/>
<path d="M7.03516 23.4189V21.7051C8.4707 20.4863 9.51074 19.5723 10.1553 18.9629C10.7998 18.3477 11.333 17.8027 11.7549 17.3281C12.1768 16.8477 12.502 16.3818 12.7305 15.9307C12.9648 15.4736 13.082 14.9756 13.082 14.4365C13.082 13.833 12.8828 13.3496 12.4844 12.9863C12.0859 12.623 11.5557 12.4414 10.8936 12.4414C10.2666 12.4414 9.75391 12.5791 9.35547 12.8545C8.96289 13.1299 8.62891 13.4902 8.35352 13.9355L7 13.0654C7.42188 12.3389 7.96387 11.8145 8.62598 11.4922C9.28809 11.1641 10.0674 11 10.9639 11C12.1416 11 13.0732 11.293 13.7588 11.8789C14.4502 12.459 14.7959 13.2822 14.7959 14.3486C14.7959 14.8877 14.7197 15.3945 14.5674 15.8691C14.415 16.3379 14.1748 16.7861 13.8467 17.2139C13.5244 17.6416 13.0879 18.1309 12.5371 18.6816C11.9922 19.2324 10.7705 20.3193 8.87207 21.9424H15.1914V23.4189H7.03516Z" fill="white"/>
<path d="M24.6572 20.7207V23.4189H23.0928V20.7207H16.835V19.1562L23.1631 11.2549H24.6572V19.3145H26.3359V20.7207H24.6572ZM23.0928 13.5752L18.4346 19.3145H23.0928V13.5752Z" fill="white"/>
</svg>
