<svg width="34" height="46" viewBox="0 0 34 46" fill="none" xmlns="http://www.w3.org/2000/svg">
<path fill-rule="evenodd" clip-rule="evenodd" d="M0 16.6594C0 7.47339 7.62615 0 17 0C26.3738 0 33.9998 7.47339 34 16.6594C34 28.0595 18.7867 44.7955 18.1389 45.5024C17.5317 46.1653 16.4694 46.1664 15.8611 45.5024C15.2133 44.7955 0 28.0595 0 16.6594Z" fill="#00C352"/>
<path d="M21.1035 19.5283C21.1035 20.7764 20.7256 21.7109 19.9697 22.332C19.2139 22.9473 18.1445 23.2549 16.7617 23.2549C15.9355 23.2549 15.1797 23.0938 14.4941 22.7715C13.8145 22.4434 13.3164 22.0098 13 21.4707L14.3535 20.6094C14.5703 20.9434 14.8838 21.2305 15.2939 21.4707C15.71 21.7109 16.1934 21.8311 16.7441 21.8311C17.6582 21.8311 18.3262 21.6377 18.748 21.251C19.1758 20.8584 19.3896 20.2461 19.3896 19.4141C19.3896 17.9668 18.4609 17.2432 16.6035 17.2432H15.707V15.8369H16.4629C17.3008 15.8369 17.9629 15.6582 18.4492 15.3008C18.9355 14.9375 19.1787 14.4248 19.1787 13.7627C19.1787 13.165 18.9795 12.7227 18.5811 12.4355C18.1885 12.1484 17.667 12.0049 17.0166 12.0049C15.9033 12.0049 15.0566 12.4531 14.4766 13.3496L13.1143 12.4883C13.4775 11.8496 14.002 11.3721 14.6875 11.0557C15.373 10.7393 16.1846 10.5811 17.1221 10.5811C17.9072 10.5811 18.584 10.7012 19.1523 10.9414C19.7207 11.1816 20.1514 11.5244 20.4443 11.9697C20.7373 12.4092 20.8838 12.9248 20.8838 13.5166C20.8838 14.3311 20.6816 14.9727 20.2773 15.4414C19.8789 15.9102 19.2666 16.2471 18.4404 16.4521C19.208 16.5107 19.8438 16.7979 20.3477 17.3135C20.8516 17.8291 21.1035 18.5674 21.1035 19.5283Z" fill="white"/>
</svg>
