<svg width="34" height="46" viewBox="0 0 34 46" fill="none" xmlns="http://www.w3.org/2000/svg">
<path fill-rule="evenodd" clip-rule="evenodd" d="M0 16.6594C0 7.47339 7.62615 0 17 0C26.3738 0 33.9998 7.47339 34 16.6594C34 28.0595 18.7867 44.7955 18.1389 45.5024C17.5317 46.1653 16.4694 46.1664 15.8611 45.5024C15.2133 44.7955 0 28.0595 0 16.6594Z" fill="#00C352"/>
<path d="M21.1826 19.1152C21.1826 20.3867 20.8135 21.3945 20.0752 22.1387C19.3428 22.8828 18.25 23.2549 16.7969 23.2549C15.8594 23.2549 15.0654 23.082 14.415 22.7363C13.7705 22.3848 13.2988 21.9629 13 21.4707L14.3447 20.5918C14.5498 20.9141 14.8545 21.2012 15.2588 21.4531C15.6689 21.7051 16.1699 21.8311 16.7617 21.8311C17.6699 21.8311 18.3525 21.5879 18.8096 21.1016C19.2666 20.6152 19.4951 19.9531 19.4951 19.1152C19.4951 18.3828 19.2607 17.8027 18.792 17.375C18.3232 16.9473 17.6523 16.7334 16.7793 16.7334C15.9062 16.7334 15.1504 16.9443 14.5117 17.3662H13.7207L14.3799 10.8359H20.752V12.3037H15.7158L15.3379 15.7842C15.5898 15.6494 15.8887 15.5469 16.2344 15.4766C16.5859 15.4062 16.9287 15.3711 17.2627 15.3711C18.5107 15.3711 19.4746 15.6875 20.1543 16.3203C20.8398 16.9531 21.1826 17.8848 21.1826 19.1152Z" fill="white"/>
</svg>
