<svg width="34" height="46" viewBox="0 0 34 46" fill="none" xmlns="http://www.w3.org/2000/svg">
<path fill-rule="evenodd" clip-rule="evenodd" d="M0 16.6594C0 7.47339 7.62615 0 17 0C26.3738 0 33.9998 7.47339 34 16.6594C34 28.0595 18.7867 44.7955 18.1389 45.5024C17.5317 46.1653 16.4694 46.1664 15.8611 45.5024C15.2133 44.7955 0 28.0595 0 16.6594Z" fill="#00C352"/>
<path d="M17.2451 23.2549C15.7744 23.2549 14.6992 22.7393 14.0195 21.708C13.3398 20.6709 13 19.1504 13 17.1465C13 15.0605 13.4219 13.4463 14.2656 12.3037C15.1094 11.1553 16.2783 10.5811 17.7725 10.5811C18.4639 10.5811 19.0615 10.6807 19.5654 10.8799C20.0693 11.0732 20.5322 11.3633 20.9541 11.75L19.9434 13.0068C19.5977 12.6729 19.2607 12.4209 18.9326 12.251C18.6104 12.0752 18.2236 11.9873 17.7725 11.9873C15.9912 11.9873 14.9893 13.373 14.7666 16.1445C15.1006 15.9043 15.5225 15.6875 16.0322 15.4941C16.542 15.3008 17.0957 15.2041 17.6934 15.2041C18.8125 15.2041 19.7061 15.5205 20.374 16.1533C21.0479 16.7803 21.3848 17.7471 21.3848 19.0537C21.3848 20.4131 21.0186 21.4531 20.2861 22.1738C19.5537 22.8945 18.54 23.2549 17.2451 23.2549ZM17.3154 21.8486C18.124 21.8486 18.7305 21.6143 19.1348 21.1455C19.5449 20.6768 19.75 20 19.75 19.1152C19.75 17.457 18.9268 16.6279 17.2803 16.6279C16.8232 16.6279 16.3633 16.71 15.9004 16.874C15.4434 17.0322 15.0596 17.208 14.749 17.4014C14.749 18.96 14.957 20.0908 15.373 20.7939C15.7949 21.4971 16.4424 21.8486 17.3154 21.8486Z" fill="white"/>
</svg>
