<svg width="34" height="46" viewBox="0 0 34 46" fill="none" xmlns="http://www.w3.org/2000/svg">
<path fill-rule="evenodd" clip-rule="evenodd" d="M0 16.6594C0 7.47339 7.62615 0 17 0C26.3738 0 33.9998 7.47339 34 16.6594C34 28.0595 18.7867 44.7955 18.1389 45.5024C17.5317 46.1653 16.4694 46.1664 15.8611 45.5024C15.2133 44.7955 0 28.0595 0 16.6594Z" fill="#00C352"/>
<path d="M21.5078 19.8711C21.5078 21.0078 21.124 21.8574 20.3564 22.4199C19.5889 22.9766 18.5576 23.2549 17.2627 23.2549C15.8564 23.2549 14.793 22.9678 14.0723 22.3936C13.3574 21.8135 13 20.9727 13 19.8711C13 18.3066 13.876 17.1963 15.6279 16.54C14.9482 16.2061 14.4707 15.9189 14.1953 15.6787C13.9199 15.4326 13.6973 15.1484 13.5273 14.8262C13.3633 14.5039 13.2812 14.126 13.2812 13.6924C13.2812 12.708 13.6182 11.9434 14.292 11.3984C14.9658 10.8535 15.9561 10.5811 17.2627 10.5811C18.5459 10.5811 19.5273 10.8447 20.207 11.3721C20.8867 11.8994 21.2266 12.667 21.2266 13.6748C21.2266 14.0967 21.1387 14.4775 20.9629 14.8174C20.7871 15.1514 20.5527 15.4473 20.2598 15.7051C19.9668 15.9629 19.501 16.2412 18.8623 16.54C19.7881 16.9443 20.459 17.4102 20.875 17.9375C21.2969 18.4648 21.5078 19.1094 21.5078 19.8711ZM19.6006 13.71C19.6006 13.1592 19.4043 12.7168 19.0117 12.3828C18.625 12.043 18.042 11.873 17.2627 11.873C16.4365 11.873 15.8359 12.043 15.4609 12.3828C15.0918 12.7168 14.9072 13.1416 14.9072 13.6572C14.9072 13.9736 14.9805 14.2402 15.127 14.457C15.2734 14.668 15.5049 14.8818 15.8213 15.0986C16.1436 15.3154 16.624 15.5732 17.2627 15.8721C17.9951 15.5732 18.5664 15.2568 18.9766 14.9229C19.3926 14.583 19.6006 14.1787 19.6006 13.71ZM19.8906 19.8711C19.8906 19.5078 19.8086 19.1826 19.6445 18.8955C19.4805 18.6084 19.2314 18.3418 18.8975 18.0957C18.5693 17.8496 18.0244 17.5537 17.2627 17.208C16.5127 17.5186 15.9766 17.7939 15.6543 18.0342C15.332 18.2744 15.0771 18.5469 14.8896 18.8516C14.708 19.1562 14.6172 19.502 14.6172 19.8887C14.6172 20.5098 14.8311 21.0078 15.2588 21.3828C15.6924 21.752 16.3604 21.9365 17.2627 21.9365C18.1768 21.9365 18.8418 21.7461 19.2578 21.3652C19.6797 20.9785 19.8906 20.4805 19.8906 19.8711Z" fill="white"/>
</svg>
