<svg width="34" height="46" viewBox="0 0 34 46" fill="none" xmlns="http://www.w3.org/2000/svg">
<path fill-rule="evenodd" clip-rule="evenodd" d="M0 16.6594C0 7.47339 7.62615 0 17 0C26.3738 0 33.9998 7.47339 34 16.6594C34 28.0595 18.7867 44.7955 18.1389 45.5024C17.5317 46.1653 16.4694 46.1664 15.8611 45.5024C15.2133 44.7955 0 28.0595 0 16.6594Z" fill="#00C352"/>
<path d="M14.2568 20.8203C14.6025 21.1602 14.9541 21.418 15.3115 21.5938C15.6748 21.7637 16.085 21.8486 16.542 21.8486C17.4678 21.8486 18.1826 21.5176 18.6865 20.8555C19.1904 20.1875 19.501 19.1328 19.6182 17.6914C19.2725 17.9316 18.8447 18.1484 18.335 18.3418C17.8252 18.5293 17.2803 18.623 16.7002 18.623C15.5752 18.623 14.6758 18.3125 14.002 17.6914C13.334 17.0645 13 16.0918 13 14.7734C13 13.4316 13.3633 12.3975 14.0898 11.6709C14.8223 10.9443 15.8271 10.5811 17.1045 10.5811C18.6279 10.5811 19.7207 11.0879 20.3828 12.1016C21.0508 13.1152 21.3848 14.583 21.3848 16.5049C21.3848 17.9521 21.2061 19.1738 20.8486 20.1699C20.4912 21.1602 19.9521 21.9219 19.2314 22.4551C18.5107 22.9883 17.6143 23.2549 16.542 23.2549C15.2061 23.2549 14.1133 22.8594 13.2637 22.0684L14.2568 20.8203ZM17.1045 17.208C17.5557 17.208 18.0127 17.126 18.4756 16.9619C18.9385 16.7979 19.3252 16.6191 19.6357 16.4258C19.6357 15.3184 19.5508 14.4746 19.3809 13.8945C19.2168 13.3145 18.9531 12.8516 18.5898 12.5059C18.2324 12.1602 17.7373 11.9873 17.1045 11.9873C16.2959 11.9873 15.6777 12.2246 15.25 12.6992C14.8281 13.168 14.6172 13.8418 14.6172 14.7207C14.6172 16.3789 15.4463 17.208 17.1045 17.208Z" fill="white"/>
</svg>
